<?xml version="1.0" encoding="UTF-8" standalone="no" ?>
<!DOCTYPE svg PUBLIC "-//W3C//DTD SVG 1.1//EN" "http://www.w3.org/Graphics/SVG/1.1/DTD/svg11.dtd">
<svg xmlns="http://www.w3.org/2000/svg" xmlns:xlink="http://www.w3.org/1999/xlink" version="1.1" width="1080" height="1080" viewBox="0 0 1080 1080" xml:space="preserve">
<desc>Created with Fabric.js 5.2.4</desc>
<defs>
</defs>
<g transform="matrix(1 0 0 1 540 540)" id="4af8e4b3-db48-4766-8462-5293f87784bc"  >
<rect style="stroke: none; stroke-width: 1; stroke-dasharray: none; stroke-linecap: butt; stroke-dashoffset: 0; stroke-linejoin: miter; stroke-miterlimit: 4; fill: rgb(255,255,255); fill-rule: nonzero; opacity: 1; visibility: hidden;" vector-effect="non-scaling-stroke"  x="-540" y="-540" rx="0" ry="0" width="1080" height="1080" />
</g>
<g transform="matrix(1 0 0 1 540 540)" id="763c00f9-f6f7-4a8a-82cd-01aba62062a7"  >
</g>
<g transform="matrix(7.88 0 0 7.88 540 540)"  >
<g style=""   >
		<g transform="matrix(1 0 0 1 0 -0.39)"  >
<rect style="stroke: none; stroke-width: 1; stroke-dasharray: none; stroke-linecap: butt; stroke-dashoffset: 0; stroke-linejoin: miter; stroke-miterlimit: 4; fill: rgb(0,26,71); fill-rule: nonzero; opacity: 1;" vector-effect="non-scaling-stroke"  x="-68.497" y="-25.6107" rx="0" ry="0" width="136.994" height="51.2214" />
</g>
		<g transform="matrix(1 0 0 1 0.38 10.46)"  >
<path style="stroke: none; stroke-width: 1; stroke-dasharray: none; stroke-linecap: butt; stroke-dashoffset: 0; stroke-linejoin: miter; stroke-miterlimit: 4; fill: rgb(255,255,255); fill-rule: nonzero; opacity: 1;" vector-effect="non-scaling-stroke"  transform=" translate(-68.88, -36.46)" d="M 25.3342 40.899 C 24.9742 41.779 24.4675 42.459 23.8142 42.939 C 23.1608 43.419 22.1808 43.659 20.8742 43.659 C 19.2342 43.659 18.0475 43.159 17.3142 42.159 C 16.5808 41.1457 16.2142 39.5723 16.2142 37.439 L 16.2142 35.479 C 16.2142 33.3457 16.5808 31.779 17.3142 30.779 C 18.0475 29.7657 19.2342 29.259 20.8742 29.259 C 22.1808 29.259 23.1608 29.499 23.8142 29.979 C 24.4675 30.459 24.9742 31.139 25.3342 32.019 L 24.7942 32.279 C 24.4875 31.5057 24.0542 30.9123 23.4942 30.499 C 22.9342 30.0723 22.0608 29.859 20.8742 29.859 C 20.2208 29.859 19.6608 29.9457 19.1942 30.119 C 18.7275 30.279 18.3075 30.559 17.9342 30.959 C 17.5608 31.359 17.2808 31.939 17.0942 32.699 C 16.9075 33.4457 16.8142 34.3723 16.8142 35.479 L 16.8142 37.439 C 16.8142 38.5457 16.9075 39.479 17.0942 40.239 C 17.2808 40.9857 17.5608 41.559 17.9342 41.959 C 18.3075 42.359 18.7275 42.6457 19.1942 42.819 C 19.6608 42.979 20.2208 43.059 20.8742 43.059 C 22.0608 43.059 22.9342 42.8523 23.4942 42.439 C 24.0542 42.0123 24.4875 41.4123 24.7942 40.639 L 25.3342 40.899 Z M 29.3724 42.859 L 35.8924 42.859 L 31.7924 33.199 L 27.4324 43.459 L 26.7924 43.459 L 31.7924 31.659 L 36.7924 43.459 L 29.3724 43.459 L 29.3724 42.859 Z M 43.9542 37.639 L 46.6742 43.459 L 46.0142 43.459 L 43.2142 37.459 C 43.2408 37.4457 43.3542 37.3923 43.5542 37.299 C 43.7675 37.1923 43.9142 37.119 43.9942 37.079 C 44.0742 37.0257 44.2075 36.939 44.3942 36.819 C 44.5808 36.699 44.7208 36.5857 44.8142 36.479 C 44.9075 36.359 45.0075 36.2257 45.1142 36.079 C 45.2342 35.919 45.3208 35.7457 45.3742 35.559 C 45.4275 35.359 45.4542 35.1457 45.4542 34.919 C 45.4542 34.079 45.0542 33.459 44.2542 33.059 C 43.4542 32.659 42.4608 32.459 41.2742 32.459 L 39.6742 32.459 L 39.6742 43.459 L 39.0742 43.459 L 39.0742 31.859 L 41.2742 31.859 C 42.8475 31.859 44.0342 32.1323 44.8342 32.679 C 45.6475 33.2257 46.0542 33.9723 46.0542 34.919 C 46.0542 35.5323 45.8475 36.079 45.4342 36.559 C 45.0208 37.0257 44.5275 37.3857 43.9542 37.639 Z M 49.8267 29.459 L 58.0267 29.459 L 52.9267 43.479 L 47.8267 29.459 L 48.4667 29.459 L 52.9267 41.719 L 57.1667 30.059 L 49.8267 30.059 L 49.8267 29.459 Z M 61.3256 42.859 L 67.8456 42.859 L 63.7456 33.199 L 59.3856 43.459 L 58.7456 43.459 L 63.7456 31.659 L 68.7456 43.459 L 61.3256 43.459 L 61.3256 42.859 Z M 71.4273 31.859 L 71.4273 37.659 C 71.4273 39.6457 71.7406 41.0457 72.3673 41.859 C 73.0073 42.659 73.8806 43.059 74.9873 43.059 C 76.094 43.059 76.9606 42.659 77.5873 41.859 C 78.2273 41.0457 78.5473 39.6457 78.5473 37.659 L 78.5473 31.859 L 79.1473 31.859 L 79.1473 37.659 C 79.1473 41.659 77.7606 43.659 74.9873 43.659 C 72.214 43.659 70.8273 41.659 70.8273 37.659 L 70.8273 31.859 L 71.4273 31.859 Z M 89.426 42.859 L 89.426 43.459 L 82.746 43.459 L 82.746 31.859 L 83.346 31.859 L 83.346 42.859 L 89.426 42.859 Z M 99.2304 31.859 L 99.2304 32.459 L 95.0304 32.459 L 95.0304 43.459 L 94.4304 43.459 L 94.4304 32.459 L 90.2304 32.459 L 90.2304 31.859 L 99.2304 31.859 Z M 101.375 29.459 L 109.215 29.459 L 104.995 34.819 C 105.595 34.899 106.155 35.039 106.675 35.239 C 107.195 35.4257 107.682 35.6923 108.135 36.039 C 108.588 36.3723 108.948 36.8123 109.215 37.359 C 109.482 37.9057 109.615 38.5257 109.615 39.219 C 109.615 40.5923 109.202 41.679 108.375 42.479 C 107.562 43.2657 106.455 43.659 105.055 43.659 C 104.415 43.659 103.815 43.5723 103.255 43.399 C 102.695 43.2257 102.242 43.019 101.895 42.779 C 101.562 42.539 101.268 42.299 101.015 42.059 C 100.762 41.819 100.582 41.6123 100.475 41.439 L 100.335 41.179 L 100.895 40.939 C 100.935 40.9923 100.988 41.0723 101.055 41.179 C 101.122 41.2723 101.282 41.439 101.535 41.679 C 101.788 41.919 102.062 42.1323 102.355 42.319 C 102.648 42.5057 103.035 42.679 103.515 42.839 C 104.008 42.9857 104.522 43.059 105.055 43.059 C 106.322 43.059 107.295 42.719 107.975 42.039 C 108.668 41.3457 109.015 40.4057 109.015 39.219 C 109.015 38.1123 108.635 37.2523 107.875 36.639 C 107.115 36.0257 106.128 35.619 104.915 35.419 L 103.915 35.259 L 107.975 30.059 L 101.375 30.059 L 101.375 29.459 Z M 114.668 43.459 L 112.748 43.459 L 112.748 29.459 L 114.668 29.459 C 116.588 29.459 118.215 30.1657 119.548 31.579 C 120.881 32.9923 121.548 34.619 121.548 36.459 C 121.548 38.299 120.881 39.9257 119.548 41.339 C 118.215 42.7523 116.588 43.459 114.668 43.459 Z M 114.668 42.859 C 116.415 42.859 117.895 42.219 119.108 40.939 C 120.335 39.6457 120.948 38.1523 120.948 36.459 C 120.948 34.7657 120.335 33.279 119.108 31.999 C 117.895 30.7057 116.415 30.059 114.668 30.059 L 113.348 30.059 L 113.348 42.859 L 114.668 42.859 Z" stroke-linecap="round" />
</g>
		<g transform="matrix(1 0 0 1 0.3 -10.44)"  >
<path style="stroke: none; stroke-width: 1; stroke-dasharray: none; stroke-linecap: butt; stroke-dashoffset: 0; stroke-linejoin: miter; stroke-miterlimit: 4; fill: rgb(255,255,255); fill-rule: nonzero; opacity: 1;" vector-effect="non-scaling-stroke"  transform=" translate(-68.8, -15.56)" d="M 60.3237 13.2568 L 61.6909 9.35059 C 62.2378 7.82715 63.644 6.81152 65.2456 6.81152 L 72.3159 6.81152 C 73.9175 6.81152 75.3237 7.82715 75.8706 9.35059 L 77.2378 13.2568 C 78.1362 13.6475 78.8003 14.5459 78.8003 15.5615 L 78.8003 23.0615 C 78.8003 23.7646 78.2143 24.3115 77.5503 24.3115 L 76.3003 24.3115 C 75.5972 24.3115 75.0503 23.7646 75.0503 23.0615 L 75.0503 21.1865 L 62.5503 21.1865 L 62.5503 23.0615 C 62.5503 23.7646 61.9643 24.3115 61.3003 24.3115 L 60.0503 24.3115 C 59.3472 24.3115 58.8003 23.7646 58.8003 23.0615 L 58.8003 15.5615 C 58.8003 14.5459 59.4253 13.6475 60.3237 13.2568 Z M 63.0581 13.0615 L 74.5034 13.0615 L 73.4878 10.1709 C 73.3315 9.66309 72.8628 9.31152 72.3159 9.31152 L 65.2456 9.31152 C 64.6987 9.31152 64.23 9.66309 64.0737 10.1709 L 63.0581 13.0615 Z M 62.5503 15.5615 C 61.8472 15.5615 61.3003 16.1475 61.3003 16.8115 C 61.3003 17.5146 61.8472 18.0615 62.5503 18.0615 C 63.2143 18.0615 63.8003 17.5146 63.8003 16.8115 C 63.8003 16.1475 63.2143 15.5615 62.5503 15.5615 Z M 75.0503 18.0615 C 75.7143 18.0615 76.3003 17.5146 76.3003 16.8115 C 76.3003 16.1475 75.7143 15.5615 75.0503 15.5615 C 74.3472 15.5615 73.8003 16.1475 73.8003 16.8115 C 73.8003 17.5146 74.3472 18.0615 75.0503 18.0615 Z" stroke-linecap="round" />
</g>
</g>
</g>
</svg>