<?xml version="1.0" encoding="UTF-8" standalone="no" ?>
<!DOCTYPE svg PUBLIC "-//W3C//DTD SVG 1.1//EN" "http://www.w3.org/Graphics/SVG/1.1/DTD/svg11.dtd">
<svg xmlns="http://www.w3.org/2000/svg" xmlns:xlink="http://www.w3.org/1999/xlink" version="1.1" width="1080" height="1080" viewBox="0 0 1080 1080" xml:space="preserve">
<desc>Created with Fabric.js 5.2.4</desc>
<defs>
</defs>
<g transform="matrix(1 0 0 1 540 540)" id="f2745500-a104-45d5-b143-b3ee7d1e2029"  >
<rect style="stroke: none; stroke-width: 1; stroke-dasharray: none; stroke-linecap: butt; stroke-dashoffset: 0; stroke-linejoin: miter; stroke-miterlimit: 4; fill: rgb(255,255,255); fill-rule: nonzero; opacity: 1; visibility: hidden;" vector-effect="non-scaling-stroke"  x="-540" y="-540" rx="0" ry="0" width="1080" height="1080" />
</g>
<g transform="matrix(1 0 0 1 540 540)" id="edcfeac5-5e1f-4076-b862-78fdd57034b6"  >
</g>
<g transform="matrix(36 0 0 36 540 540)"  >
<g style=""   >
		<g transform="matrix(1 0 0 1 0 0)"  >
<rect style="stroke: none; stroke-width: 1; stroke-dasharray: none; stroke-linecap: butt; stroke-dashoffset: 0; stroke-linejoin: miter; stroke-miterlimit: 4; fill: rgb(0,26,71); fill-rule: nonzero; opacity: 1;" vector-effect="non-scaling-stroke"  x="-15" y="-16" rx="0" ry="0" width="30" height="32" />
</g>
		<g transform="matrix(1 0 0 1 -0.2 -0.44)"  >
<path style="stroke: none; stroke-width: 1; stroke-dasharray: none; stroke-linecap: butt; stroke-dashoffset: 0; stroke-linejoin: miter; stroke-miterlimit: 4; fill: rgb(255,255,255); fill-rule: nonzero; opacity: 1;" vector-effect="non-scaling-stroke"  transform=" translate(-14.8, -15.56)" d="M 6.32372 13.2568 L 7.6909 9.35059 C 8.23778 7.82715 9.64403 6.81152 11.2456 6.81152 L 18.3159 6.81152 C 19.9175 6.81152 21.3237 7.82715 21.8706 9.35059 L 23.2378 13.2568 C 24.1362 13.6475 24.8003 14.5459 24.8003 15.5615 L 24.8003 23.0615 C 24.8003 23.7646 24.2143 24.3115 23.5503 24.3115 L 22.3003 24.3115 C 21.5972 24.3115 21.0503 23.7646 21.0503 23.0615 L 21.0503 21.1865 L 8.55028 21.1865 L 8.55028 23.0615 C 8.55028 23.7646 7.96434 24.3115 7.30028 24.3115 L 6.05028 24.3115 C 5.34715 24.3115 4.80028 23.7646 4.80028 23.0615 L 4.80028 15.5615 C 4.80028 14.5459 5.42528 13.6475 6.32372 13.2568 Z M 9.05809 13.0615 L 20.5034 13.0615 L 19.4878 10.1709 C 19.3315 9.66309 18.8628 9.31152 18.3159 9.31152 L 11.2456 9.31152 C 10.6987 9.31152 10.23 9.66309 10.0737 10.1709 L 9.05809 13.0615 Z M 8.55028 15.5615 C 7.84715 15.5615 7.30028 16.1475 7.30028 16.8115 C 7.30028 17.5146 7.84715 18.0615 8.55028 18.0615 C 9.21434 18.0615 9.80028 17.5146 9.80028 16.8115 C 9.80028 16.1475 9.21434 15.5615 8.55028 15.5615 Z M 21.0503 18.0615 C 21.7143 18.0615 22.3003 17.5146 22.3003 16.8115 C 22.3003 16.1475 21.7143 15.5615 21.0503 15.5615 C 20.3472 15.5615 19.8003 16.1475 19.8003 16.8115 C 19.8003 17.5146 20.3472 18.0615 21.0503 18.0615 Z" stroke-linecap="round" />
</g>
</g>
</g>
</svg>